<svg width="96" height="134" viewBox="0 0 96 134" fill="none" xmlns="http://www.w3.org/2000/svg">
<g filter="url(#filter0_d_35319_18087)">
<path d="M45.4537 0C61.8855 7.71012e-05 73.5309 3.02351 80.3889 9.07031C87.3147 15.1172 90.7778 24.3048 90.7778 36.6328L73 49L54.3148 36.6328V28.125C54.3148 26.4376 53.6016 25.125 52.1759 24.1875C50.818 23.2501 48.9503 22.7813 46.5741 22.7812C43.7224 22.7812 41.6173 23.3439 40.2593 24.4688C38.9691 25.5469 38.3241 26.9531 38.3241 28.6875C38.3241 30.4219 39.0031 32.2969 40.3611 34.3125C41.7192 36.3281 44.4013 38.6485 48.4074 41.2734L69.0833 54.9844C73.2252 57.7031 77.0279 60.586 80.4907 63.6328C83.9536 66.6328 86.7377 70.1485 88.8426 74.1797C90.9475 78.164 92 83.0391 92 88.8047C92 100.43 88.8764 109.547 82.6296 116.156C76.4507 122.719 65.654 126 50.2407 126C33.8767 126 22.0618 123.187 14.7963 117.562C7.59877 111.938 4 102.984 4 90.7031V78.6094L21 66L39.4444 78.6094V94.0781C39.4444 96.9375 40.0556 99.1875 41.2778 100.828C42.5679 102.422 44.7748 103.219 47.8981 103.219C51.1571 103.219 53.3982 102.562 54.6204 101.25C55.9104 99.9375 56.5556 97.7811 56.5556 94.7812C56.5556 90.9844 56.0123 87.8203 54.9259 85.2891C53.8395 82.711 51.9381 80.2734 49.2222 77.9766C46.5741 75.6329 42.8733 72.914 38.1204 69.8203L22.0278 59.2734C10.0093 51.4453 4 42.4922 4 32.4141C4 21.8672 7.53086 13.8281 14.5926 8.29688C21.7222 2.76577 32.0094 0 45.4537 0Z" fill="#00FFFF"/>
</g>
<defs>
<filter id="filter0_d_35319_18087" x="0" y="0" width="96" height="134" filterUnits="userSpaceOnUse" color-interpolation-filters="sRGB">
<feFlood flood-opacity="0" result="BackgroundImageFix"/>
<feColorMatrix in="SourceAlpha" type="matrix" values="0 0 0 0 0 0 0 0 0 0 0 0 0 0 0 0 0 0 127 0" result="hardAlpha"/>
<feOffset dy="4"/>
<feGaussianBlur stdDeviation="2"/>
<feComposite in2="hardAlpha" operator="out"/>
<feColorMatrix type="matrix" values="0 0 0 0 1 0 0 0 0 1 0 0 0 0 1 0 0 0 0.25 0"/>
<feBlend mode="normal" in2="BackgroundImageFix" result="effect1_dropShadow_35319_18087"/>
<feBlend mode="normal" in="SourceGraphic" in2="effect1_dropShadow_35319_18087" result="shape"/>
</filter>
</defs>
</svg>
